<svg xmlns="http://www.w3.org/2000/svg" width="24" height="24" viewBox="0 0 24 24"><path d="M0,0H24V24H0Z" fill="none"/><path d="M15.01,9H15a1,1,0,0,1,0-2h.01a1,1,0,0,1,0,2Z" fill="#333"/><path d="M6,2H18a4,4,0,0,1,4,4V18a4,4,0,0,1-4,4H6a4,4,0,0,1-4-4V6A4,4,0,0,1,6,2ZM18,20a2,2,0,0,0,2-2V6a2,2,0,0,0-2-2H6A2,2,0,0,0,4,6V18a2,2,0,0,0,2,2Z" fill="#333"/><path d="M16,17a1,1,0,0,1-.707-.293L10.3,11.714a1.023,1.023,0,0,0-1.6,0L3.707,16.707a1,1,0,1,1-1.414-1.414l5-5,.014-.013a3.014,3.014,0,0,1,4.387,0l.014.013,5,5A1,1,0,0,1,16,17Z" fill="#333"/><path d="M21,17a1,1,0,0,1-.707-.293L17.3,13.714a1.023,1.023,0,0,0-1.6,0l-.993.993a1,1,0,0,1-1.414-1.414l1-1,.014-.013a3.014,3.014,0,0,1,4.387,0l.014.013,3,3A1,1,0,0,1,21,17Z" fill="#333"/></svg>